<svg width="1200" height="800" xmlns="http://www.w3.org/2000/svg">
  <rect width="100%" height="100%" fill="#e0f2f1"/>
  <rect x="250" y="200" width="700" height="550" fill="#faf9f6" rx="4"/>
  <rect x="300" y="250" width="150" height="200" fill="#e7f3f2" stroke="#0f766e" stroke-width="2" rx="2"/>
  <rect x="500" y="250" width="150" height="200" fill="#e7f3f2" stroke="#0f766e" stroke-width="2" rx="2"/>
  <rect x="700" y="250" width="150" height="200" fill="#e7f3f2" stroke="#0f766e" stroke-width="2" rx="2"/>
  <rect x="300" y="480" width="150" height="150" fill="#e7f3f2" stroke="#0f766e" stroke-width="2" rx="2"/>
  <rect x="500" y="480" width="150" height="150" fill="#e7f3f2" stroke="#0f766e" stroke-width="2" rx="2"/>
  <rect x="700" y="480" width="150" height="150" fill="#e7f3f2" stroke="#0f766e" stroke-width="2" rx="2"/>
  <rect x="570" y="620" width="60" height="80" fill="#0f766e" opacity="0.4" rx="2"/>
  <path d="M220 200 L600 80 L980 200" fill="#0f766e" opacity="0.2"/>
  <path d="M250 200 L600 100 L950 200" fill="#0f766e" opacity="0.3"/>
  <circle cx="150" cy="500" r="100" fill="#0f766e" opacity="0.15"/>
  <circle cx="1050" cy="500" r="100" fill="#0f766e" opacity="0.15"/>
  <rect x="350" y="300" width="50" height="80" fill="#87ceeb" opacity="0.5"/>
  <rect x="550" y="300" width="50" height="80" fill="#87ceeb" opacity="0.5"/>
  <rect x="750" y="300" width="50" height="80" fill="#87ceeb" opacity="0.5"/>
  <text x="600" y="150" font-family="Georgia, serif" font-size="40" fill="#095650" font-style="italic">Exterior</text>
  <text x="600" y="190" font-family="Inter, sans-serif" font-size="14" fill="#1a3131" opacity="0.8" text-anchor="middle">Utrecht Style</text>
</svg>